<svg width="1200" height="540" viewBox="0 0 1200 540" fill="none" xmlns="http://www.w3.org/2000/svg">
  <defs>
    <linearGradient id="bg" x1="0" y1="0" x2="1200" y2="540" gradientUnits="userSpaceOnUse">
      <stop stop-color="#1f2937"/>
      <stop offset="1" stop-color="#0f172a"/>
    </linearGradient>
    <linearGradient id="accent" x1="0" y1="0" x2="1200" y2="0" gradientUnits="userSpaceOnUse">
      <stop stop-color="#38bdf8"/>
      <stop offset="1" stop-color="#a855f7"/>
    </linearGradient>
  </defs>
  <rect width="1200" height="540" rx="32" fill="url(#bg)"/>
  <g opacity="0.16">
    <circle cx="300" cy="160" r="140" fill="#fff"/>
    <circle cx="860" cy="380" r="220" fill="#c084fc"/>
    <circle cx="980" cy="120" r="80" fill="#38bdf8"/>
  </g>
  <rect x="120" y="140" width="460" height="260" rx="24" fill="#111827" opacity="0.92"/>
  <rect x="620" y="115" width="420" height="310" rx="28" fill="#111827" opacity="0.92"/>
  <rect x="140" y="180" width="420" height="36" rx="18" fill="url(#accent)"/>
  <rect x="140" y="230" width="320" height="18" rx="9" fill="#374151"/>
  <rect x="140" y="260" width="360" height="18" rx="9" fill="#374151"/>
  <rect x="140" y="290" width="300" height="18" rx="9" fill="#374151"/>
  <rect x="660" y="145" width="320" height="18" rx="9" fill="#374151"/>
  <rect x="660" y="180" width="380" height="18" rx="9" fill="#374151"/>
  <rect x="660" y="215" width="350" height="18" rx="9" fill="#374151"/>
  <rect x="660" y="250" width="370" height="18" rx="9" fill="#374151"/>
  <rect x="660" y="285" width="180" height="18" rx="9" fill="#374151"/>
  <path d="M180 360H360C380 360 395 375 395 395V415C395 435 380 450 360 450H180C160 450 145 435 145 415V395C145 375 160 360 180 360Z" fill="#0f172a" stroke="#38bdf8" stroke-width="2"/>
  <path d="M390 385C390 370 402 358 417 358H595C610 358 622 370 622 385V435C622 450 610 462 595 462H417C402 462 390 450 390 435V385Z" fill="#0f172a" stroke="#a855f7" stroke-width="2"/>
  <text x="140" y="115" fill="#ffffff" font-family="Inter, sans-serif" font-size="48" font-weight="700">Vite + Vue 3</text>
  <text x="140" y="180" fill="#ffffff" font-family="Inter, sans-serif" font-size="28" font-weight="500">Dự án học trực tuyến hiện đại, responsive và dễ mở rộng.</text>
  <text x="660" y="360" fill="#ffffff" font-family="Inter, sans-serif" font-size="38" font-weight="700">Học tập</text>
  <text x="660" y="410" fill="#ffffff" font-family="Inter, sans-serif" font-size="18" font-weight="400">Courses, exploration, commerce, học tập và quản lý tài khoản.</text>
</svg>
